<svg width="20" height="22" viewBox="0 0 20 22" fill="none" xmlns="http://www.w3.org/2000/svg">
<path d="M9.075 8.45002C8.325 8.45002 7.55833 8.56252 6.775 8.78752C5.99167 9.01252 5.19167 9.36669 4.375 9.85002L5.4 18.7H14.625L15.675 9.47502H15.575C14.9417 9.47502 14.325 9.42502 13.725 9.32502C13.125 9.22502 12.3667 9.03336 11.45 8.75002C11.0667 8.65002 10.6708 8.57502 10.2625 8.52502C9.85417 8.47502 9.45833 8.45002 9.075 8.45002ZM4 6.45002C4.85 6.06669 5.7 5.78336 6.55 5.60002C7.4 5.41669 8.25 5.32502 9.1 5.32502C9.63334 5.32502 10.1667 5.36252 10.7 5.43752C11.2333 5.51252 11.7583 5.61669 12.275 5.75002C13.125 5.98336 13.7625 6.14169 14.1875 6.22502C14.6125 6.30836 15.0667 6.35002 15.55 6.35002H16.025L16.325 3.30002H3.675L4 6.45002ZM5.375 21.85C4.575 21.85 3.875 21.5834 3.275 21.05C2.675 20.5167 2.33333 19.85 2.25 19.05L0.150002 0.150024H19.85L17.775 19.05C17.6917 19.85 17.35 20.5167 16.75 21.05C16.15 21.5834 15.45 21.85 14.65 21.85H5.375ZM9.075 18.725H11.45C12.3667 18.725 13.0792 18.7209 13.5875 18.7125C14.0958 18.7042 14.4417 18.7 14.625 18.7H5.4C5.71667 18.7 6.22084 18.7042 6.9125 18.7125C7.60417 18.7209 8.325 18.725 9.075 18.725Z" fill="white"/>
</svg>
